<svg width="368" height="83" viewBox="0 0 368 83" fill="none" xmlns="http://www.w3.org/2000/svg">
<g filter="url(#filter0_d_84_714)">
<path d="M52.8633 4.3877L52.8652 4.38867C52.8667 4.38915 52.8692 4.38973 52.8721 4.39062C52.8783 4.3926 52.8882 4.39554 52.9004 4.39941C52.925 4.40723 52.9619 4.41932 53.0098 4.43457C53.1058 4.46515 53.2481 4.50989 53.4307 4.56836C53.7961 4.68541 54.3256 4.85595 54.9824 5.06934C56.2969 5.49641 58.1225 6.09614 60.1641 6.78613C64.2433 8.16481 69.202 9.90939 72.6816 11.3613C75.7883 12.6577 79.1064 14.467 81.6406 15.9463C82.9094 16.6869 83.9853 17.3472 84.7441 17.8223C84.8816 17.9083 85.008 17.9893 85.124 18.0625H344C355.046 18.0626 364 27.0168 364 38.0625V58.7041C364 69.7497 355.046 78.7041 344 78.7041H24C12.9543 78.7041 4.00001 69.7498 4 58.7041V38.0625C4 27.0168 12.9543 18.0625 24 18.0625H57.3164L56.623 14.1025L54.8525 9.6084L52.2783 5.1123L51.6416 4L52.8633 4.3877Z" fill="white"/>
</g>
<defs>
<filter id="filter0_d_84_714" x="0" y="0" width="368" height="82.7041" filterUnits="userSpaceOnUse" color-interpolation-filters="sRGB">
<feFlood flood-opacity="0" result="BackgroundImageFix"/>
<feColorMatrix in="SourceAlpha" type="matrix" values="0 0 0 0 0 0 0 0 0 0 0 0 0 0 0 0 0 0 127 0" result="hardAlpha"/>
<feOffset/>
<feGaussianBlur stdDeviation="2"/>
<feComposite in2="hardAlpha" operator="out"/>
<feColorMatrix type="matrix" values="0 0 0 0 0 0 0 0 0 0 0 0 0 0 0 0 0 0 0.25 0"/>
<feBlend mode="normal" in2="BackgroundImageFix" result="effect1_dropShadow_84_714"/>
<feBlend mode="normal" in="SourceGraphic" in2="effect1_dropShadow_84_714" result="shape"/>
</filter>
</defs>
</svg>
