<svg width="282" height="51" viewBox="0 0 282 51" fill="none" xmlns="http://www.w3.org/2000/svg">
<g filter="url(#filter0_d_84_1097)">
<path d="M262.141 4C270.425 4.00026 277.141 10.7159 277.141 19V32C277.141 40.2843 270.424 47 262.14 47H38.1396C30.9713 46.9998 24.9786 41.9711 23.4941 35.249C21.2543 34.1229 19.0764 32.9881 17.3135 31.9873C14.3862 30.3255 11.3107 28.1289 8.97363 26.3545C7.80353 25.4661 6.81507 24.6804 6.11914 24.1172C5.77137 23.8357 5.49591 23.6102 5.30762 23.4541C5.21369 23.3763 5.14088 23.3155 5.0918 23.2744C5.06756 23.2541 5.04874 23.2382 5.03613 23.2275C5.02984 23.2222 5.02474 23.2176 5.02148 23.2148C5.02009 23.2137 5.01839 23.2126 5.01758 23.2119V23.2109H5.0166L4 22.3516L5.33105 22.3291L23.1406 22.0312V19C23.1407 10.7158 29.8564 4 38.1406 4H262.141Z" fill="white"/>
</g>
<defs>
<filter id="filter0_d_84_1097" x="0" y="0" width="281.141" height="51" filterUnits="userSpaceOnUse" color-interpolation-filters="sRGB">
<feFlood flood-opacity="0" result="BackgroundImageFix"/>
<feColorMatrix in="SourceAlpha" type="matrix" values="0 0 0 0 0 0 0 0 0 0 0 0 0 0 0 0 0 0 127 0" result="hardAlpha"/>
<feOffset/>
<feGaussianBlur stdDeviation="2"/>
<feComposite in2="hardAlpha" operator="out"/>
<feColorMatrix type="matrix" values="0 0 0 0 0 0 0 0 0 0 0 0 0 0 0 0 0 0 0.25 0"/>
<feBlend mode="normal" in2="BackgroundImageFix" result="effect1_dropShadow_84_1097"/>
<feBlend mode="normal" in="SourceGraphic" in2="effect1_dropShadow_84_1097" result="shape"/>
</filter>
</defs>
</svg>
