<svg width="35" height="35" viewBox="0 0 35 35" fill="none" xmlns="http://www.w3.org/2000/svg">
<path d="M9.8842 15.5556H24.4675M9.8842 21.3889H18.6342M9.8842 9.72225H21.5509M31.7592 24.3056C31.7592 25.0791 31.4519 25.821 30.9049 26.368C30.3579 26.915 29.6161 27.2222 28.8425 27.2222H9.63336C8.85988 27.2224 8.11813 27.5298 7.57128 28.0768L4.36003 31.2881C4.21522 31.4329 4.03074 31.5315 3.82991 31.5714C3.62908 31.6113 3.42091 31.5908 3.23173 31.5125C3.04255 31.4341 2.88085 31.3014 2.76707 31.1312C2.6533 30.9609 2.59256 30.7608 2.59253 30.556V6.80558C2.59253 6.03203 2.89982 5.29017 3.4468 4.74319C3.99378 4.19621 4.73565 3.88892 5.5092 3.88892H28.8425C29.6161 3.88892 30.3579 4.19621 30.9049 4.74319C31.4519 5.29017 31.7592 6.03203 31.7592 6.80558V24.3056Z" stroke="#6B6B6B" stroke-width="2" stroke-linecap="round" stroke-linejoin="round"/>
</svg>
