<svg width="35" height="35" viewBox="0 0 35 35" fill="none" xmlns="http://www.w3.org/2000/svg">
<path d="M20.2093 16.1604L24.228 18.8395M12.8417 14.151L12.8752 9.46254H20.2093M20.2093 9.46254L10.8324 24.1978H5.47412M20.2093 9.46254L22.8885 11.4719L16.8604 20.1791L16.1906 18.8395L20.2093 12.1417M14.8511 18.8395L21.5489 23.528V30.2258M24.228 8.12298C24.5833 8.12298 24.924 7.98184 25.1752 7.73063C25.4265 7.47941 25.5676 7.13869 25.5676 6.78341C25.5676 6.42814 25.4265 6.08741 25.1752 5.8362C24.924 5.58498 24.5833 5.44385 24.228 5.44385C23.8728 5.44385 23.532 5.58498 23.2808 5.8362C23.0296 6.08741 22.8885 6.42814 22.8885 6.78341C22.8885 7.13869 23.0296 7.47941 23.2808 7.73063C23.532 7.98184 23.8728 8.12298 24.228 8.12298Z" stroke="#6B6B6B" stroke-width="2" stroke-linecap="round" stroke-linejoin="round"/>
<rect x="1" y="1" width="33" height="33" rx="4" stroke="#6B6B6B" stroke-width="2"/>
</svg>
