<svg width="35" height="35" viewBox="0 0 35 35" fill="none" xmlns="http://www.w3.org/2000/svg">
<path d="M12.479 19.6875H6.828C6.07928 19.6917 5.36267 19.9921 4.83475 20.523C4.30682 21.054 4.01049 21.7723 4.0105 22.521V28.172C4.01012 28.5422 4.08273 28.9087 4.22419 29.2507C4.36564 29.5927 4.57316 29.9035 4.83487 30.1652C5.09658 30.4269 5.40733 30.6344 5.74934 30.7759C6.09134 30.9173 6.45789 30.9899 6.828 30.9895H12.479C13.2279 30.9903 13.9465 30.6942 14.4773 30.1661C15.0082 29.6379 15.308 28.9209 15.3111 28.172V22.521C15.3115 22.149 15.2385 21.7805 15.0963 21.4368C14.9541 21.093 14.7455 20.7806 14.4825 20.5176C14.2194 20.2545 13.9071 20.0459 13.5633 19.9037C13.2195 19.7615 12.8511 19.6885 12.479 19.6889M12.479 4.01038H6.828C6.45789 4.00999 6.09134 4.08261 5.74934 4.22407C5.40733 4.36552 5.09658 4.57304 4.83487 4.83475C4.57316 5.09645 4.36564 5.40721 4.22419 5.74921C4.08273 6.09122 4.01012 6.45777 4.0105 6.82788V12.4789C4.00972 13.2277 4.30585 13.9463 4.83398 14.4772C5.36212 15.0081 6.07918 15.3079 6.828 15.311H12.479C12.8511 15.3114 13.2195 15.2384 13.5633 15.0962C13.9071 14.954 14.2194 14.7454 14.4825 14.4824C14.7455 14.2193 14.9541 13.9069 15.0963 13.5632C15.2385 13.2194 15.3115 12.8509 15.3111 12.4789V6.82788C15.308 6.07905 15.0082 5.362 14.4773 4.83386C13.9465 4.30573 13.2279 4.0096 12.479 4.01038ZM28.1722 4.01038H22.5211C21.7723 4.0096 21.0537 4.30573 20.5228 4.83386C19.992 5.362 19.6921 6.07905 19.689 6.82788V12.4789C19.6894 13.2299 19.9879 13.95 20.519 14.4811C21.05 15.0121 21.7701 15.3106 22.5211 15.311H28.1722C28.921 15.3079 29.638 15.0081 30.1662 14.4772C30.6943 13.9463 30.9904 13.2277 30.9897 12.4789V6.82788C30.99 6.45777 30.9174 6.09122 30.776 5.74921C30.6345 5.40721 30.427 5.09645 30.1653 4.83475C29.9036 4.57304 29.5928 4.36552 29.2508 4.22407C28.9088 4.08261 28.5423 4.00999 28.1722 4.01038ZM25.3386 19.6875C23.8399 19.6875 22.4025 20.2828 21.3427 21.3426C20.283 22.4024 19.6876 23.8398 19.6876 25.3385C19.6876 26.8373 20.283 28.2746 21.3427 29.3344C22.4025 30.3942 23.8399 30.9895 25.3386 30.9895C26.8374 30.9895 28.2747 30.3942 29.3345 29.3344C30.3943 28.2746 30.9897 26.8373 30.9897 25.3385C30.9897 23.8398 30.3943 22.4024 29.3345 21.3426C28.2747 20.2828 26.8374 19.6875 25.3386 19.6875Z" stroke="#6B6B6B" stroke-width="2" stroke-linecap="round" stroke-linejoin="round"/>
</svg>
