<svg width="63" height="63" viewBox="0 0 63 63" fill="none" xmlns="http://www.w3.org/2000/svg">
<path d="M35.4375 5.25003C35.4375 6.41553 34.9309 7.4629 34.125 8.18478V13.125H47.25C49.3386 13.125 51.3416 13.9547 52.8185 15.4316C54.2953 16.9084 55.125 18.9114 55.125 21V47.25C55.125 49.3386 54.2953 51.3416 52.8185 52.8185C51.3416 54.2953 49.3386 55.125 47.25 55.125H15.75C13.6614 55.125 11.6584 54.2953 10.1815 52.8185C8.70469 51.3416 7.875 49.3386 7.875 47.25V21C7.875 18.9114 8.70469 16.9084 10.1815 15.4316C11.6584 13.9547 13.6614 13.125 15.75 13.125H28.875V8.18478C28.3854 7.74691 28.0132 7.19353 27.7922 6.57504C27.5711 5.95655 27.5083 5.29259 27.6095 4.64362C27.7106 3.99465 27.9725 3.38128 28.3712 2.85938C28.77 2.33748 29.293 1.92362 29.8926 1.65549C30.4921 1.38736 31.1493 1.27347 31.8041 1.3242C32.459 1.37493 33.0907 1.58866 33.6418 1.94594C34.193 2.30321 34.646 2.79268 34.9596 3.36976C35.2732 3.94685 35.4375 4.59323 35.4375 5.25003ZM15.75 18.375C15.0538 18.375 14.3861 18.6516 13.8938 19.1439C13.4016 19.6362 13.125 20.3038 13.125 21V47.25C13.125 47.9462 13.4016 48.6139 13.8938 49.1062C14.3861 49.5985 15.0538 49.875 15.75 49.875H47.25C47.9462 49.875 48.6139 49.5985 49.1062 49.1062C49.5984 48.6139 49.875 47.9462 49.875 47.25V21C49.875 20.3038 49.5984 19.6362 49.1062 19.1439C48.6139 18.6516 47.9462 18.375 47.25 18.375H15.75ZM5.25 26.25H0V42H5.25V26.25ZM57.75 26.25H63V42H57.75V26.25ZM23.625 38.0625C24.6693 38.0625 25.6708 37.6477 26.4092 36.9093C27.1477 36.1708 27.5625 35.1693 27.5625 34.125C27.5625 33.0807 27.1477 32.0792 26.4092 31.3408C25.6708 30.6024 24.6693 30.1875 23.625 30.1875C22.5807 30.1875 21.5792 30.6024 20.8408 31.3408C20.1023 32.0792 19.6875 33.0807 19.6875 34.125C19.6875 35.1693 20.1023 36.1708 20.8408 36.9093C21.5792 37.6477 22.5807 38.0625 23.625 38.0625ZM39.375 38.0625C40.4193 38.0625 41.4208 37.6477 42.1592 36.9093C42.8977 36.1708 43.3125 35.1693 43.3125 34.125C43.3125 33.0807 42.8977 32.0792 42.1592 31.3408C41.4208 30.6024 40.4193 30.1875 39.375 30.1875C38.3307 30.1875 37.3292 30.6024 36.5908 31.3408C35.8523 32.0792 35.4375 33.0807 35.4375 34.125C35.4375 35.1693 35.8523 36.1708 36.5908 36.9093C37.3292 37.6477 38.3307 38.0625 39.375 38.0625Z" fill="black"/>
</svg>
