<svg width="51" height="51" viewBox="0 0 51 51" fill="none" xmlns="http://www.w3.org/2000/svg">
<path d="M18.0625 38.25H41.1931C41.519 38.25 41.8186 38.114 42.092 37.842C42.3654 37.57 42.5014 37.2697 42.5 36.941V31.5031H18.0625V38.25ZM8.5 19.4969H15.9375V12.75H9.809C9.48175 12.75 9.18142 12.886 8.908 13.158C8.63458 13.43 8.49858 13.7303 8.5 14.059V19.4969ZM8.5 29.4313H15.9375V21.6219H8.5V29.4313ZM9.809 38.25H15.9375V31.5031H8.5V36.9431C8.5 37.269 8.636 37.5686 8.908 37.842C9.18 38.1154 9.47962 38.2514 9.80687 38.25M18.0625 29.4313H42.5V21.6219H18.0625V29.4313ZM18.0625 19.4969H42.5V14.0569C42.5 13.731 42.364 13.4314 42.092 13.158C41.82 12.8846 41.5204 12.7486 41.1931 12.75H18.0625V19.4969ZM9.809 40.375C8.83008 40.375 8.01338 40.0477 7.35888 39.3932C6.70438 38.7387 6.37642 37.9213 6.375 36.941V14.059C6.375 13.0801 6.70296 12.2634 7.35888 11.6089C8.01479 10.9544 8.83079 10.6264 9.80687 10.625H41.1931C42.1706 10.625 42.9866 10.953 43.6411 11.6089C44.2956 12.2648 44.6236 13.0815 44.625 14.059V36.9431C44.625 37.9206 44.297 38.7373 43.6411 39.3932C42.9852 40.0492 42.1692 40.3764 41.1931 40.375H9.809Z" fill="#737373"/>
</svg>
