<svg width="38" height="38" viewBox="0 0 38 38" fill="none" xmlns="http://www.w3.org/2000/svg">
<path d="M19.0001 15.7712V15.7892M11.963 15.7712V15.7892M26.0371 15.7712V15.7892M29.5556 3.16663C30.9554 3.16663 32.2978 3.73576 33.2876 4.74882C34.2774 5.76189 34.8334 7.1359 34.8334 8.56859V22.9738C34.8334 24.4065 34.2774 25.7805 33.2876 26.7936C32.2978 27.8066 30.9554 28.3758 29.5556 28.3758H20.7593L11.963 33.7777V28.3758H8.44453C7.04477 28.3758 5.70235 27.8066 4.71257 26.7936C3.7228 25.7805 3.16675 24.4065 3.16675 22.9738V8.56859C3.16675 7.1359 3.7228 5.76189 4.71257 4.74882C5.70235 3.73576 7.04477 3.16663 8.44453 3.16663H29.5556Z" stroke="#6B6B6B" stroke-width="2.2" stroke-linecap="round" stroke-linejoin="round"/>
</svg>
