<svg width="82" height="18" viewBox="0 0 82 18" fill="none" xmlns="http://www.w3.org/2000/svg">
<path d="M4.96797 17.016C3.51197 17.016 2.31997 16.816 1.39197 16.416C0.463967 16 -3.31849e-05 15.376 -3.31849e-05 14.544C-3.31849e-05 13.872 0.0719668 13.384 0.215967 13.08C0.375967 12.776 0.583967 12.624 0.839967 12.624C1.03197 12.624 1.26397 12.736 1.53597 12.96C1.82397 13.168 2.15997 13.408 2.54397 13.68C2.94397 13.952 3.37597 14.2 3.83997 14.424C4.31997 14.632 4.84797 14.736 5.42397 14.736C6.28797 14.736 6.87997 14.544 7.19997 14.16C7.53597 13.76 7.70397 13.336 7.70397 12.888C7.70397 12.44 7.59997 12.032 7.39197 11.664C7.18397 11.296 6.79197 10.92 6.21597 10.536L4.34397 9.28798C3.81597 8.93598 3.30397 8.54398 2.80797 8.11198C2.32797 7.67998 1.92797 7.18398 1.60797 6.62398C1.28797 6.06398 1.12797 5.42398 1.12797 4.70398C1.12797 3.71198 1.39997 2.86398 1.94397 2.15998C2.48797 1.45598 3.23997 0.919979 4.19997 0.551979C5.17597 0.183979 6.29597 -2.14577e-05 7.55997 -2.14577e-05C8.55197 -2.14577e-05 9.33597 0.0639787 9.91197 0.191979C10.504 0.303978 10.928 0.487978 11.184 0.743979C11.44 0.983979 11.568 1.29598 11.568 1.67998C11.568 2.12798 11.496 2.54398 11.352 2.92798C11.208 3.31198 11.016 3.50398 10.776 3.50398C10.616 3.50398 10.424 3.43198 10.2 3.28798C9.97597 3.14398 9.69597 2.99998 9.35997 2.85598C9.00797 2.69598 8.63197 2.56798 8.23197 2.47198C7.84797 2.35998 7.42397 2.30398 6.95997 2.30398C6.35197 2.30398 5.87997 2.48798 5.54397 2.85598C5.22397 3.20798 5.06397 3.63198 5.06397 4.12798C5.06397 4.47998 5.16797 4.81598 5.37597 5.13598C5.58397 5.45598 5.95997 5.75998 6.50397 6.04798L8.23197 6.93598C8.98397 7.31998 9.63197 7.71198 10.176 8.11198C10.72 8.49598 11.144 8.96798 11.448 9.52798C11.752 10.088 11.904 10.816 11.904 11.712C11.904 13.408 11.28 14.72 10.032 15.648C8.79997 16.56 7.11197 17.016 4.96797 17.016ZM12.5602 17.04C12.1282 17.04 11.9122 16.904 11.9122 16.632C11.9122 16.504 11.9762 16.296 12.1042 16.008L19.1842 1.72798C19.3442 1.39198 19.6242 1.09598 20.0242 0.839979C20.4242 0.583979 20.8882 0.383978 21.4162 0.239978C21.9602 0.0799785 22.5122 -2.14577e-05 23.0722 -2.14577e-05C23.2962 -2.14577e-05 23.4802 0.0479784 23.6242 0.143978C23.7682 0.239979 23.8642 0.439979 23.9122 0.743979C24.1842 2.58398 24.5202 4.37598 24.9202 6.11998C25.3202 7.84798 25.7682 9.59998 26.2642 11.376C26.4882 12.128 26.6802 12.736 26.8402 13.2C27.0002 13.664 27.1602 14.016 27.3202 14.256C27.4962 14.496 27.6482 14.696 27.7762 14.856C27.9202 15 27.9922 15.144 27.9922 15.288C27.9922 15.464 27.8562 15.656 27.5842 15.864C27.3282 16.056 27.0002 16.24 26.6002 16.416C26.2162 16.592 25.8322 16.728 25.4482 16.824C25.0642 16.936 24.7522 16.992 24.5122 16.992C24.1122 16.992 23.7202 16.68 23.3362 16.056C22.9682 15.416 22.6082 14.272 22.2562 12.624L20.1682 2.61598L21.3202 2.32798L16.7602 12.168C16.5522 12.616 16.4002 12.992 16.3042 13.296C16.2242 13.6 16.1762 13.88 16.1602 14.136C16.1442 14.376 16.1122 14.656 16.0642 14.976C16.0322 15.28 15.8562 15.56 15.5362 15.816C15.2322 16.056 14.8722 16.272 14.4562 16.464C14.0562 16.64 13.6722 16.776 13.3042 16.872C12.9522 16.984 12.7042 17.04 12.5602 17.04ZM15.7282 12.144V9.98398H24.6562V12.144H15.7282ZM31.0601 16.992C30.6761 16.992 30.3801 16.856 30.1721 16.584C29.9641 16.296 29.8201 15.976 29.7401 15.624C29.6601 15.256 29.6201 14.96 29.6201 14.736C29.6201 14.416 29.6361 14.096 29.6681 13.776C29.7161 13.456 29.7721 12.944 29.8361 12.24L31.0361 0.383979H34.6121C35.7481 0.383979 36.7241 0.359979 37.5401 0.311979C38.3721 0.263978 39.0441 0.215979 39.5561 0.167979C40.0681 0.119979 40.4121 0.0959787 40.5881 0.0959787C40.7641 0.0959787 40.9241 0.127979 41.0681 0.191979C41.2121 0.239978 41.2841 0.383978 41.2841 0.623979C41.2841 0.911979 41.2041 1.27198 41.0441 1.70398C40.9001 2.11998 40.7161 2.49598 40.4921 2.83198C40.2681 3.15198 40.0361 3.31198 39.7961 3.31198C39.6841 3.31198 39.4921 3.28798 39.2201 3.23998C38.9481 3.19198 38.6521 3.13598 38.3321 3.07198C38.0281 2.99198 37.7641 2.93598 37.5401 2.90398L34.8521 2.42398L33.5561 16.992H31.0601ZM32.9561 9.83998L33.2681 7.51198H34.4201C35.1081 7.51198 35.7321 7.48798 36.2921 7.43998C36.8681 7.39198 37.3481 7.34398 37.7321 7.29598C38.1161 7.24798 38.3561 7.22398 38.4521 7.22398C38.6761 7.22398 38.8361 7.28798 38.9321 7.41598C39.0281 7.54398 39.0761 7.68798 39.0761 7.84798C39.0761 8.08798 38.9401 8.35998 38.6681 8.66398C38.3961 8.96798 38.0121 9.23198 37.5161 9.45598C37.0361 9.66398 36.4601 9.77598 35.7881 9.79198L32.9561 9.83998ZM42.7425 16.992C42.4545 16.992 42.2305 16.816 42.0705 16.464C41.9265 16.112 41.8545 15.72 41.8545 15.288C41.8545 14.664 41.9265 13.648 42.0705 12.24L43.2705 0.383979H47.4465C48.5345 0.383979 49.4385 0.359979 50.1585 0.311979C50.8785 0.263978 51.4465 0.215979 51.8625 0.167979C52.2785 0.119979 52.5745 0.0959787 52.7505 0.0959787C52.9265 0.0959787 53.0945 0.127979 53.2545 0.191979C53.4305 0.239978 53.5185 0.383978 53.5185 0.623979C53.5185 0.911979 53.4385 1.27198 53.2785 1.70398C53.1345 2.11998 52.9505 2.49598 52.7265 2.83198C52.5025 3.15198 52.2705 3.31198 52.0305 3.31198C51.8705 3.31198 51.5665 3.26398 51.1185 3.16798C50.6865 3.07198 50.2385 2.98398 49.7745 2.90398L47.0865 2.42398L46.0065 12.408C45.9745 12.792 45.9585 13.168 45.9585 13.536C45.9585 13.888 45.9825 14.232 46.0305 14.568L50.5665 13.536C50.8545 13.472 51.1425 13.408 51.4305 13.344C51.7345 13.264 51.9425 13.224 52.0545 13.224C52.3265 13.224 52.4625 13.44 52.4625 13.872C52.4625 14.16 52.3825 14.528 52.2225 14.976C52.0785 15.424 51.8705 15.824 51.5985 16.176C51.3425 16.528 51.0385 16.704 50.6865 16.704H49.6065C47.8145 16.704 46.3265 16.752 45.1425 16.848C43.9585 16.944 43.1585 16.992 42.7425 16.992ZM44.8305 9.38398L45.1425 7.05598H46.2945C46.9825 7.05598 47.6065 7.03198 48.1665 6.98398C48.7425 6.93598 49.2225 6.88798 49.6065 6.83998C49.9905 6.79198 50.2305 6.76798 50.3265 6.76798C50.5505 6.76798 50.7105 6.83198 50.8065 6.95998C50.9025 7.08798 50.9505 7.23198 50.9505 7.39198C50.9505 7.63198 50.8145 7.90398 50.5425 8.20798C50.2705 8.51198 49.8865 8.77598 49.3905 8.99998C48.9105 9.20798 48.3345 9.31998 47.6625 9.33598L44.8305 9.38398ZM55.2084 16.896C54.8404 16.896 54.5924 16.768 54.4644 16.512C54.3364 16.256 54.2724 15.912 54.2724 15.48C54.2724 15.16 54.2964 14.8 54.3444 14.4L55.8564 0.383979H60.9684C63.0964 0.383979 64.6564 0.711979 65.6484 1.36798C66.6564 2.02398 67.1604 3.11198 67.1604 4.63198C67.1604 5.55998 66.9524 6.40798 66.5364 7.17598C66.1364 7.94398 65.6084 8.60798 64.9524 9.16798C64.2964 9.72798 63.5924 10.168 62.8404 10.488C62.1044 10.792 61.4004 10.944 60.7284 10.944C60.4884 10.944 60.2484 10.888 60.0084 10.776C59.7684 10.664 59.5684 10.52 59.4084 10.344C59.2484 10.152 59.1684 9.93598 59.1684 9.69598C59.1684 9.51998 59.2244 9.39198 59.3364 9.31198C59.4484 9.23198 59.6484 9.15198 59.9364 9.07198C60.6724 8.86398 61.2484 8.55998 61.6644 8.15998C62.0964 7.75998 62.4084 7.28798 62.6004 6.74398C62.7924 6.18398 62.8884 5.58398 62.8884 4.94398C62.8884 4.22398 62.7444 3.67998 62.4564 3.31198C62.1684 2.92798 61.7684 2.66398 61.2564 2.51998C60.7444 2.37598 60.1604 2.30398 59.5044 2.30398L57.9204 16.896H55.2084ZM69.1772 16.896C68.8092 16.896 68.5612 16.768 68.4332 16.512C68.3052 16.256 68.2412 15.912 68.2412 15.48C68.2412 15.16 68.2652 14.8 68.3132 14.4L69.8252 0.383979H74.9372C77.0652 0.383979 78.6252 0.711979 79.6172 1.36798C80.6252 2.02398 81.1292 3.11198 81.1292 4.63198C81.1292 5.55998 80.9212 6.40798 80.5052 7.17598C80.1052 7.94398 79.5772 8.60798 78.9212 9.16798C78.2652 9.72798 77.5612 10.168 76.8092 10.488C76.0732 10.792 75.3692 10.944 74.6972 10.944C74.4572 10.944 74.2172 10.888 73.9772 10.776C73.7372 10.664 73.5372 10.52 73.3772 10.344C73.2172 10.152 73.1372 9.93598 73.1372 9.69598C73.1372 9.51998 73.1932 9.39198 73.3052 9.31198C73.4172 9.23198 73.6172 9.15198 73.9052 9.07198C74.6412 8.86398 75.2172 8.55998 75.6332 8.15998C76.0652 7.75998 76.3772 7.28798 76.5692 6.74398C76.7612 6.18398 76.8572 5.58398 76.8572 4.94398C76.8572 4.22398 76.7132 3.67998 76.4252 3.31198C76.1372 2.92798 75.7372 2.66398 75.2252 2.51998C74.7132 2.37598 74.1292 2.30398 73.4732 2.30398L71.8892 16.896H69.1772Z" fill="black"/>
</svg>
