<svg width="79" height="79" viewBox="0 0 79 79" fill="none" xmlns="http://www.w3.org/2000/svg">
<path d="M79 39.5C79 61.3152 61.3152 79 39.5 79C17.6848 79 0 61.3152 0 39.5C0 17.6848 17.6848 0 39.5 0C61.3152 0 79 17.6848 79 39.5Z" fill="url(#paint0_linear_79_823)"/>
<path d="M39.5 17.7188C38.5149 17.7186 37.5472 17.9788 36.695 18.4731L22.6488 26.5481L22.6445 26.5524C21.7925 27.0478 21.0854 27.7581 20.5939 28.6125C20.1024 29.4668 19.8437 30.4351 19.8438 31.4207V47.5771C19.8412 48.5635 20.0988 49.5332 20.5905 50.3882C21.0822 51.2433 21.7907 51.9537 22.6445 52.4476L22.6509 52.4519L36.6929 60.5247H36.6971C37.549 61.0188 38.5163 61.279 39.5011 61.279C40.4859 61.279 41.4531 61.0188 42.305 60.5247H42.3071L56.3491 52.4497H56.3555C57.2085 51.9538 57.9162 51.2424 58.4078 50.3869C58.8993 49.5314 59.1574 48.5617 59.1563 47.575V31.425C59.1567 30.439 58.8982 29.4702 58.4067 28.6155C57.9152 27.7608 57.2079 27.0501 56.3555 26.5545L42.3093 18.4795L42.305 18.4752C41.4531 17.9802 40.4854 17.7192 39.5 17.7188ZM39.5 28.6136C39.9227 28.6136 40.3281 28.7815 40.627 29.0804C40.9259 29.3793 41.0938 29.7847 41.0938 30.2074V41.8949C41.0938 42.3176 40.9259 42.7229 40.627 43.0218C40.3281 43.3207 39.9227 43.4886 39.5 43.4886C39.0773 43.4886 38.672 43.3207 38.3731 43.0218C38.0742 42.7229 37.9063 42.3176 37.9063 41.8949V30.2074C37.9063 29.7847 38.0742 29.3793 38.3731 29.0804C38.672 28.7815 39.0773 28.6136 39.5 28.6136ZM41.0938 47.7301V48.7926C41.0938 49.2153 40.9259 49.6207 40.627 49.9196C40.3281 50.2185 39.9227 50.3864 39.5 50.3864C39.0773 50.3864 38.672 50.2185 38.3731 49.9196C38.0742 49.6207 37.9063 49.2153 37.9063 48.7926V47.7301C37.9063 47.3074 38.0742 46.9021 38.3731 46.6032C38.672 46.3043 39.0773 46.1364 39.5 46.1364C39.9227 46.1364 40.3281 46.3043 40.627 46.6032C40.9259 46.9021 41.0938 47.3074 41.0938 47.7301Z" fill="white"/>
<defs>
<linearGradient id="paint0_linear_79_823" x1="39.5" y1="0" x2="39.5" y2="79" gradientUnits="userSpaceOnUse">
<stop stop-color="#0167CD"/>
<stop offset="1" stop-color="#004993"/>
</linearGradient>
</defs>
</svg>
